<?xml version="1.0" encoding="UTF-8"?>
<svg width="512px" height="512px" viewBox="0 0 512 512" version="1.1" xmlns="http://www.w3.org/2000/svg">
    <g>
        <path d="M407.875,512H104.125C46.6,512,0,465.4,0,407.875V104.125C0,46.6,46.6,0,104.125,0h303.75C465.4,0,512,46.6,512,104.125v303.75C512,465.4,465.4,512,407.875,512z" fill="#000000"/>
        <path d="M361.9,243.9l-25.6-41.8c-2.3-3.7-7.2-4.9-10.9-2.6c-3.7,2.3-4.9,7.2-2.6,10.9l27.8,45.5l-27.8,45.5c-2.3,3.7-1.1,8.6,2.6,10.9c1.3,0.8,2.7,1.2,4.1,1.2c2.6,0,5.2-1.3,6.7-3.8l25.6-41.8l25.6,41.8c1.5,2.5,4.1,3.8,6.7,3.8c1.4,0,2.8-0.4,4.1-1.2c3.7-2.3,4.9-7.2,2.6-10.9l-27.8-45.5l27.8-45.5c2.3-3.7,1.1-8.6-2.6-10.9c-3.7-2.3-8.6-1.1-10.9,2.6L361.9,243.9z" fill="#A6B1B7"/>
        <path d="M255.3,170.5c-4.3,0-7.8,3.5-7.8,7.8v155.4c0,4.3,3.5,7.8,7.8,7.8c4.3,0,7.8-3.5,7.8-7.8V178.3C263.1,174,259.6,170.5,255.3,170.5z" fill="#147EFB"/>
        <path d="M180.7,178.3v155.4c0,4.3,3.5,7.8,7.8,7.8c4.3,0,7.8-3.5,7.8-7.8V178.3c0-4.3-3.5-7.8-7.8-7.8C184.2,170.5,180.7,174,180.7,178.3z" fill="#53D769"/>
        <path d="M150.1,243.9l-25.6-41.8c-2.3-3.7-7.2-4.9-10.9-2.6c-3.7,2.3-4.9,7.2-2.6,10.9l27.8,45.5l-27.8,45.5c-2.3,3.7-1.1,8.6,2.6,10.9c1.3,0.8,2.7,1.2,4.1,1.2c2.6,0,5.2-1.3,6.7-3.8l25.6-41.8l25.6,41.8c1.5,2.5,4.1,3.8,6.7,3.8c1.4,0,2.8-0.4,4.1-1.2c3.7-2.3,4.9-7.2,2.6-10.9l-27.8-45.5l27.8-45.5c2.3-3.7,1.1-8.6-2.6-10.9c-3.7-2.3-8.6-1.1-10.9,2.6L150.1,243.9z" fill="#FC3158"/>
    </g>
</svg>
