<?xml version="1.0" encoding="UTF-8"?>
<svg width="512px" height="512px" viewBox="0 0 512 512" version="1.1" xmlns="http://www.w3.org/2000/svg">
    <g>
        <path d="M45.1477076,37.5891179 L285.708428,256.001784 L45.1477076,474.414449 C36.7005307,469.723832 31.0585143,461.570237 29.5174193,452.015903 L29.1619385,449.165466 L29.1619385,62.8380615 C29.1619385,51.5050366 35.8625836,41.5561781 45.1477076,37.5891179 Z" fill="#EA4335"/>
        <path d="M285.708428,256.001784 L45.1477076,37.5891179 C48.9172832,35.4650397 53.2461744,34.2039872 57.8380615,34.2039872 L453.723054,34.2039872 C458.314941,34.2039872 462.643832,35.4650397 466.413408,37.5891179 L285.708428,256.001784 Z" fill="#4285F4"/>
        <path d="M482.838062,62.8380615 L482.838062,449.165466 C482.838062,453.757353 481.577009,458.086244 479.452931,461.85582 L285.708428,256.001784 L482.838062,62.8380615 Z" fill="#34A853"/>
        <path d="M479.452931,461.85582 C475.683355,463.979898 471.354464,465.240951 466.762577,465.240951 L57.8380615,465.240951 C53.2461744,465.240951 48.9172832,463.979898 45.1477076,461.85582 L285.708428,256.001784 L479.452931,461.85582 Z" fill="#FBBC04"/>
    </g>
</svg>
